# xmcd CD database file
#
# Track frame offsets:
#	150
#	18871
#	34840
#	53786
#	69383
#	92854
#	122166
#	146154
#	162645
#	174009
#	182589
#	195324
#	227214
#	243242
#
# Disc length: 3564 seconds
#
# Revision: 1
# Processed by: cddbd v1.5.1PL0 Copyright (c) Steve Scherf et al.
# Submitted via: CDex 1.51
#
DISCID=b70dea0e
DTITLE=GASTUNK - EARLY SINGLES
DYEAR=2002
DGENRE=Rock
TTITLE0=Mr.GAZIME
TTITLE1=IN THE FIRE
TTITLE2=THE BIRTH OF STARS
TTITLE3=GERONIMO
TTITLE4=RED INDIAN'S ROCK
TTITLE5=THE VANISHING SIGNS
TTITLE6=IN EXCHANGE FOR YOUR MIND
TTITLE7=A HOLY LAND
TTITLE8=ENDLESS WALTZ
TTITLE9=DEVIL
TTITLE10=SEX
TTITLE11=FARSTEST DREAM
TTITLE12=IN THE FIRE
TTITLE13=DEAD SONG (Rock'n f Version)
EXTD=YEAR: 2002
EXTT0=
EXTT1=
EXTT2=
EXTT3=
EXTT4=
EXTT5=
EXTT6=
EXTT7=
EXTT8=
EXTT9=
EXTT10=
EXTT11=
EXTT12=
EXTT13=
PLAYORDER=
